<?xml version="1.0" encoding="UTF-8"?>
<!DOCTYPE svg PUBLIC "-//W3C//DTD SVG 1.1//EN" "http://www.w3.org/Graphics/SVG/1.1/DTD/svg11.dtd">
<!-- Creator: CorelDRAW X6 -->
<svg xmlns="http://www.w3.org/2000/svg" xml:space="preserve" width="26.4584mm" height="26.4584mm" version="1.1" style="shape-rendering:geometricPrecision; text-rendering:geometricPrecision; image-rendering:optimizeQuality; fill-rule:evenodd; clip-rule:evenodd"
viewBox="0 0 161 161"
 xmlns:xlink="http://www.w3.org/1999/xlink">
 <defs>
  <style type="text/css">
   <![CDATA[
    .fil2 {fill:#E62129}
    .fil0 {fill:#3E4F71}
    .fil1 {fill:#EFEFEF}
   ]]>
  </style>
 </defs>
 <g id="Layer_x0020_1">
  <metadata id="CorelCorpID_0Corel-Layer"/>
  <g id="_652287624">
   <path class="fil0" d="M81 0c-44,0 -81,36 -81,81 0,44 36,81 81,81 44,0 81,-36 81,-81 0,-44 -36,-81 -81,-81z"/>
   <path class="fil1" d="M26 59l0 44c0,4 1,8 3,11 1,3 2,4 4,6 0,0 0,0 0,0 1,2 3,3 5,5 2,2 4,3 7,4 1,0 2,1 3,1 2,0 4,1 6,1l45 0c1,0 3,0 4,0 1,0 3,-1 4,-1 3,-1 7,-3 9,-5l2 -2c1,-1 1,-1 2,-2 1,-2 3,-3 3,-5 2,-3 3,-8 3,-12l0 -25c0,0 -5,5 -6,5 0,0 0,0 0,0l-8 7c-1,1 -2,2 -3,3l-2 2c-1,1 0,1 0,1l0 6c0,4 -3,8 -7,8l-46 0c-3,0 -6,-2 -7,-5 0,-1 -1,-2 -1,-3l0 -43c0,-3 1,-5 4,-7 1,-1 2,-1 4,-1l32 0c2,0 1,0 3,-1 1,-1 2,-2 3,-3 0,0 0,0 1,-1l3 -3c0,0 0,0 1,-1 0,0 0,0 0,0l3 -3c1,-1 2,-3 4,-4l1 -1c0,0 0,0 0,0l1 -1c0,0 1,-1 1,-1 -1,0 -2,0 -3,0 -1,0 -2,0 -3,0l-45 0c-3,0 -6,1 -9,2l-1 0c0,0 -1,0 -1,1l-3 2c-1,1 -2,1 -3,2 -3,2 -5,5 -7,8 -2,4 -4,9 -4,13z"/>
   <path class="fil2" d="M83 73l-3 -3c0,0 0,0 0,0 -1,-1 -1,-1 -2,-2l-9 -8 -3 3c-1,1 -2,2 -3,3l-5 5c0,0 -1,1 -2,2 0,1 4,4 4,4 0,0 0,0 0,0 1,1 2,2 3,3 1,1 2,2 3,3 1,1 2,2 3,3l0 0c1,1 2,2 3,3 1,1 2,2 3,3l3 3c0,0 0,1 1,1 1,1 2,2 2,2 0,0 0,0 0,0 0,0 0,0 0,0 1,-1 2,-2 3,-3 0,0 0,0 0,0l5 -5c0,0 1,0 1,-1l8 -8c0,0 0,0 0,0l6 -6c0,0 0,0 0,0 1,-1 2,-2 3,-3 0,0 0,0 0,0l11 -11c1,0 1,-1 2,-2l1 -1c0,0 0,0 0,0l2 -2c0,0 1,0 1,-1 1,-1 1,-1 2,-2 1,-1 1,-1 2,-2l2 -2c0,0 0,0 0,0 0,0 1,-1 1,-1 0,0 -3,-3 -3,-3l-2 -2c0,0 0,0 0,0 0,0 -1,-1 -1,-1l-4 -4c0,0 -1,-1 -1,-1 0,0 -2,-1 -2,-2 0,0 0,0 -1,0l-1 1c0,0 0,0 -1,1 -1,1 -2,2 -2,2l-3 3c0,0 0,0 -1,1l-4 4c-1,1 -1,1 -2,2l-1 1c-2,2 -3,3 -5,5 0,0 -1,1 -1,1 0,0 -1,1 -1,1l-2 2c0,0 -1,1 -1,1 0,0 0,0 -1,1 -1,1 -2,2 -3,3 0,0 0,0 0,0 -1,1 -2,2 -2,2l-1 1c0,0 -1,1 -1,1l-2 2c0,0 -1,1 -1,1 0,0 -1,1 -1,1z"/>
  </g>
 </g>
</svg>
