<?xml version="1.0" encoding="UTF-8"?>
<!DOCTYPE svg PUBLIC "-//W3C//DTD SVG 1.1//EN" "http://www.w3.org/Graphics/SVG/1.1/DTD/svg11.dtd">
<!-- Creator: CorelDRAW X6 -->
<svg xmlns="http://www.w3.org/2000/svg" xml:space="preserve" width="26.4584mm" height="26.4584mm" version="1.1" style="shape-rendering:geometricPrecision; text-rendering:geometricPrecision; image-rendering:optimizeQuality; fill-rule:evenodd; clip-rule:evenodd"
viewBox="0 0 142 142"
 xmlns:xlink="http://www.w3.org/1999/xlink">
 <defs>
  <style type="text/css">
   <![CDATA[
    .fil1 {fill:#0188E2}
    .fil0 {fill:#EDEDED}
   ]]>
  </style>
 </defs>
 <g id="Layer_x0020_1">
  <metadata id="CorelCorpID_0Corel-Layer"/>
  <path class="fil0" d="M71 0c39,0 71,32 71,71 0,39 -32,71 -71,71 -39,0 -71,-32 -71,-71 0,-39 32,-71 71,-71z"/>
  <path class="fil1" d="M135 61l-29 -30c0,0 -1,0 -1,0 0,0 0,0 0,0 0,0 -1,0 -1,0l-10 10 -11 -1c-1,0 -9,-1 -12,2 -1,1 -2,2 -3,4 0,0 -1,1 -1,2l-8 8c0,0 -1,1 -1,1 -2,2 -3,3 -4,6 -1,3 1,7 4,8 4,2 7,0 8,0 2,-1 4,-2 6,-4 1,-1 2,-1 3,-2 2,-1 3,-2 4,-3 2,-1 4,0 6,1 0,0 0,0 0,0 0,0 17,15 20,18 1,2 2,3 1,5 0,2 -2,4 -5,5l-1 0c0,0 0,0 0,-1l-10 -10c-1,-1 -2,-1 -2,0 -1,1 -1,2 0,2l10 10c0,0 0,0 0,0l-6 4c0,0 0,-1 0,-1l-9 -9c-1,-1 -2,-1 -2,0 -1,1 -1,2 0,2l9 9c0,0 0,0 0,0l-7 4c0,0 0,0 0,-1l-6 -6c-1,-1 -2,-1 -2,0 -1,1 -1,2 0,2l6 6c0,0 0,0 0,0l-3 2c-3,2 -5,3 -7,1 0,0 0,0 0,0 0,0 0,0 0,0l-7 -6 3 -5c2,-3 1,-8 -2,-11l-24 -20c0,0 0,0 0,0 0,0 0,0 0,0 0,0 0,0 0,0 0,0 0,0 0,0 0,0 0,0 0,0 0,0 0,0 0,0 0,0 0,0 0,0 0,0 0,0 0,0 0,0 0,0 0,0 0,0 0,0 0,0 0,0 0,0 0,0 0,0 0,0 0,0l-6 9c-1,-1 -5,-4 -6,-6l22 -23 11 2c0,0 0,0 0,0 1,0 1,0 2,-1 0,-1 0,-2 -1,-2l-10 -2c0,0 0,0 0,0l-11 -11c0,0 -1,0 -1,0 0,0 0,0 0,0 0,0 -1,0 -1,0l-21 22c-1,1 -1,2 0,2 1,1 2,1 2,0l20 -21 8 8c0,0 0,0 0,0 0,0 0,0 0,0l-26 27 -9 -10c-1,-1 -2,-1 -2,0 -1,1 -1,2 0,2l11 11c0,0 0,0 0,0 0,0 0,0 0,0 0,0 0,0 0,0 0,0 0,0 0,0 0,0 0,0 1,0 0,0 0,0 1,0 0,0 0,0 0,0 0,0 0,0 0,0 0,0 0,0 0,0 0,0 0,0 0,0l3 -4c3,3 6,6 6,6 0,0 0,0 1,0l-2 2c-2,3 -1,8 2,10l6 5c0,0 0,0 0,0 0,0 0,0 0,0l6 5c0,0 0,0 0,0 0,0 0,0 0,0l6 5c0,0 0,0 0,0 0,0 0,0 0,0 3,3 6,4 8,4 0,0 1,0 1,0 2,0 5,-1 6,-3l1 1c0,0 0,0 0,0 1,1 3,2 4,2 2,0 5,-2 7,-3l23 -15c4,-2 6,-5 6,-7 0,-2 0,-3 0,-5 0,0 0,0 0,0l7 -6c1,-1 1,-2 0,-2 -1,-1 -2,-1 -2,0l-6 6c0,0 0,0 0,0 -2,-2 -18,-16 -20,-18 -2,-3 -6,-4 -9,-2 -2,1 -4,2 -5,3 -1,1 -2,1 -3,2 -2,1 -4,3 -6,4 -2,1 -4,1 -5,0 -2,-1 -3,-3 -2,-5 0,-2 2,-3 3,-4 0,0 1,-1 1,-1l8 -8c0,0 1,-1 1,-2 1,-1 2,-2 3,-3 2,-2 7,-1 10,-1l11 1c0,0 0,0 0,0l28 30c0,0 1,0 1,0 0,0 0,0 0,0 0,0 1,0 1,0l11 -11c1,-1 1,-2 0,-2zm-103 20l8 -12 4 4 -8 13c-1,1 -1,3 -1,4l-2 -2c-2,-1 -2,-4 -1,-6zm7 6l7 -12 5 4 -8 13c-1,1 -1,3 -1,4l-2 -2c-2,-2 -2,-4 -1,-6zm7 6l7 -12 5 4 -8 13c-1,1 -1,3 -1,4l-2 -2c-2,-2 -2,-5 -1,-7zm15 15c-2,0 -5,-1 -7,-3 0,0 0,0 0,0 -2,-2 -2,-4 -1,-6l7 -12 2 2c2,2 2,5 1,7l-4 6c0,0 0,0 0,0 0,0 0,0 0,0 0,0 0,0 0,0 0,0 0,0 0,0 0,0 0,0 0,0 0,0 0,0 0,0 0,0 0,0 0,0 0,0 0,0 0,0l4 4c-1,1 -3,1 -4,2zm62 -37l-27 -28 9 -9 26 28 -8 9z"/>
 </g>
</svg>
