<?xml version="1.0" encoding="UTF-8"?>
<!DOCTYPE svg PUBLIC "-//W3C//DTD SVG 1.1//EN" "http://www.w3.org/Graphics/SVG/1.1/DTD/svg11.dtd">
<!-- Creator: CorelDRAW X6 -->
<svg xmlns="http://www.w3.org/2000/svg" xml:space="preserve" width="26.4583mm" height="26.458mm" version="1.1" style="shape-rendering:geometricPrecision; text-rendering:geometricPrecision; image-rendering:optimizeQuality; fill-rule:evenodd; clip-rule:evenodd"
viewBox="0 0 96 96"
 xmlns:xlink="http://www.w3.org/1999/xlink">
 <defs>
  <style type="text/css">
   <![CDATA[
    .fil2 {fill:#323332}
    .fil0 {fill:#E0E0E0}
    .fil1 {fill:#FAB948}
   ]]>
  </style>
 </defs>
 <g id="Layer_x0020_1">
  <metadata id="CorelCorpID_0Corel-Layer"/>
  <path class="fil0" d="M48 0c27,0 48,22 48,48 0,27 -22,48 -48,48 -27,0 -48,-22 -48,-48 0,-27 22,-48 48,-48z"/>
  <g id="_689562640">
   <path class="fil1" d="M45 39c0,5 -3,11 -6,12 0,1 -1,1 -1,2 -1,1 0,1 -1,1 -1,3 -4,5 -4,12 0,13 10,24 24,23 19,-2 26,-25 15,-37 -2,3 -6,3 -11,3 -2,0 -2,-1 -4,-1l0 3c3,1 7,1 7,7l-3 0c-1,-2 0,-3 -3,-3 -1,0 -5,0 -6,0 -2,1 -2,3 -1,4 1,1 4,1 6,1 10,0 9,12 0,12l0 3 -3 0 0 -3c-4,0 -7,-2 -7,-7l3 0c0,2 1,3 3,3 1,0 5,0 6,0 1,-1 2,-3 0,-4 -2,-2 -13,2 -13,-6 0,-4 3,-6 7,-6l0 -3 3 0c-1,-2 -2,-3 -1,-5 0,-1 1,-1 1,-2 0,-1 -1,-1 -1,-2 0,-3 2,-3 0,-7 0,0 -1,-1 -2,-2 -1,1 -6,5 -7,6 -1,-1 -1,-1 -1,-1z"/>
   <path class="fil2" d="M42 22c-1,1 -3,2 -4,4 -1,1 -1,1 -3,1 -1,0 -3,0 -4,0l0 -3 -12 0 0 33 12 0 0 -3c3,0 5,0 7,1 1,-1 1,-1 1,-1 1,-1 1,-1 1,-2 -1,0 -3,-1 -4,-2 -2,0 -4,0 -5,0l0 -19c2,0 4,0 6,0 1,0 2,0 2,-1 1,-1 1,-1 2,-1 1,-1 2,-2 3,-3 1,-1 2,-2 3,-3 1,0 10,2 11,3 1,1 4,4 4,6 0,1 -1,2 -2,2 -2,0 -4,-3 -6,-4l-5 4c-2,1 -3,3 -5,4l1 1c1,1 0,1 1,1 2,-1 6,-5 7,-6 0,0 2,1 2,2 3,4 0,4 0,7 0,1 1,2 1,2 0,1 0,1 -1,2 -1,2 0,4 1,5l-3 0 0 3c-4,0 -7,2 -7,6 0,8 10,5 13,6 2,1 1,4 0,4 -1,1 -5,0 -6,0 -2,0 -3,-1 -3,-3l-3 0c0,4 2,7 7,7l0 3 3 0 0 -3c9,0 9,-12 0,-12 -2,0 -4,0 -6,-1 -2,-1 -1,-4 1,-4 1,0 5,0 6,0 3,0 2,1 3,3l3 0c0,-6 -4,-6 -7,-7l0 -3c1,1 2,1 4,1 5,0 9,1 11,-3 1,-3 0,-4 -1,-6 2,-3 2,-4 0,-7 2,-3 2,-4 0,-7 1,-2 2,-3 1,-6 -1,-2 -2,-3 -5,-3l-6 0c-1,-2 -2,-2 -5,-3 -2,-1 -4,-1 -6,-2 -3,-1 -3,-2 -5,0 -1,1 -3,2 -4,3z"/>
   <path class="fil0" d="M40 51c3,-2 6,-7 6,-12l-1 -1c1,-1 3,-3 5,-4l5 -4c2,1 3,4 6,4 1,0 2,-1 2,-2 0,-2 -3,-5 -4,-6 -1,-1 -10,-3 -11,-3 -1,1 -2,2 -3,3 -1,1 -2,2 -3,3 -1,1 -1,1 -2,1 -1,1 -1,1 -2,1 -2,0 -4,0 -6,0l0 19c2,0 4,0 5,0 1,0 3,1 4,2z"/>
   <path class="fil1" d="M42 22c1,-1 3,-2 4,-3 2,-2 2,-1 5,0 2,1 4,1 6,2 2,1 4,1 5,3l6 0c1,-2 2,-3 2,-7 0,-3 0,-6 -1,-8 -2,-2 -4,-2 -6,0 -2,2 0,6 -3,5 0,-1 0,-7 -5,-7 -2,0 -3,1 -3,3 -1,2 1,4 -2,4 -1,-3 0,-4 -2,-6 -2,-1 -4,-1 -6,0 -2,2 -1,4 -1,6 0,3 1,4 1,7z"/>
   <polygon class="fil0" points="21,52 27,52 27,27 22,27 "/>
   <path class="fil0" d="M61 41c-2,1 -2,3 1,3 1,0 6,0 7,0 2,-1 2,-3 -1,-3 -1,0 -6,0 -7,0z"/>
   <path class="fil0" d="M61 48c-2,1 -2,3 1,3 1,0 6,0 7,0 2,-1 2,-3 -1,-3 -1,0 -6,0 -7,0z"/>
   <path class="fil0" d="M65 30c2,0 3,0 4,0 2,-1 2,-3 -1,-3 -1,0 -4,0 -6,0 2,1 3,2 3,4z"/>
   <path class="fil0" d="M60 36c0,0 1,1 2,1 1,0 6,0 7,0 2,-1 2,-3 -1,-3 -1,0 -2,0 -3,0 -1,2 -3,3 -4,3 0,0 0,0 0,0z"/>
  </g>
 </g>
</svg>
