<?xml version="1.0" encoding="UTF-8"?>
<!DOCTYPE svg PUBLIC "-//W3C//DTD SVG 1.1//EN" "http://www.w3.org/Graphics/SVG/1.1/DTD/svg11.dtd">
<!-- Creator: CorelDRAW X6 -->
<svg xmlns="http://www.w3.org/2000/svg" xml:space="preserve" width="26.491mm" height="26.4889mm" version="1.1" style="shape-rendering:geometricPrecision; text-rendering:geometricPrecision; image-rendering:optimizeQuality; fill-rule:evenodd; clip-rule:evenodd"
viewBox="0 0 414 414"
 xmlns:xlink="http://www.w3.org/1999/xlink">
 <defs>
  <style type="text/css">
   <![CDATA[
    .fil0 {fill:#0D70B2}
    .fil6 {fill:#22A7DD}
    .fil7 {fill:#5CC2ED}
    .fil5 {fill:#8E9FA9}
    .fil4 {fill:#ACBAC4}
    .fil8 {fill:#B98045}
    .fil3 {fill:#C8D1DA}
    .fil2 {fill:#DCA46B}
    .fil1 {fill:#DFEAEF}
    .fil9 {fill:#F5FAFB}
   ]]>
  </style>
 </defs>
 <g id="Layer_x0020_1">
  <metadata id="CorelCorpID_0Corel-Layer"/>
  <path class="fil0" d="M121 55l0 42 0 10 11 4 1 -10c6,-1 19,-1 24,1l1 23 -7 1 -1 12 8 1c1,7 2,17 -1,24l-6 1c2,5 2,6 2,13 6,1 7,1 6,18 -1,11 -3,7 -16,8 2,4 2,8 0,12l16 1c1,5 1,7 1,12 0,1 0,6 0,7 -1,8 -7,9 -25,6l-1 -16 -11 1 0 4c0,23 -4,33 23,33 17,0 89,3 98,-4 8,-6 5,-33 5,-46 0,-26 2,-22 -12,-38 0,3 2,63 -2,66 -4,2 -18,2 -22,0l-2 -100 4 -1 -2 -13c-5,-3 -3,-15 -3,-20l2 -4c7,-4 4,2 15,-6 7,5 13,18 20,24 0,-18 0,-36 0,-53 0,-25 -7,-23 -31,-23 -18,0 -35,0 -53,0 -17,0 -37,-4 -41,12z"/>
  <path class="fil1" d="M85 41l0 90 16 0c0,-2 -1,-3 0,-5 0,0 0,-1 0,-1 0,0 0,-1 0,-1 0,0 0,-1 0,-1 0,0 0,-1 1,-1 4,-8 7,-12 18,-13l0 -10c-10,-4 -23,-11 -25,-22 -2,-15 11,-23 25,-19 5,-16 24,-12 41,-12 18,0 35,0 53,0 23,0 31,-2 31,23 0,18 0,36 0,53 2,5 6,9 9,11l77 0 1 -88c-3,-2 -7,-4 -10,-7 -3,-2 -6,-4 -10,-6 -8,-4 -13,-8 -22,-12l-167 0c-9,4 -34,18 -39,23z"/>
  <path class="fil2" d="M211 102l8 -1c-1,4 -3,7 -5,12 -1,4 -2,9 -3,13l2 13c6,17 13,21 21,35 13,16 12,12 12,38 0,13 3,39 -5,46 -9,7 -80,4 -98,4l2 4c3,4 5,7 8,10 5,6 5,2 5,12l0 16 0 9 0 17 1 0 0 -48c12,6 15,11 32,13l0 35 64 0 0 -43c2,-4 1,-1 4,-5 2,-2 2,-3 4,-5 3,-4 5,-7 6,-12l4 -11 3 -11c5,-17 8,-33 13,-51 4,-15 4,-12 -4,-22 -3,-3 -11,-14 -13,-18 -3,-2 -6,-7 -9,-11 -3,-4 -6,-7 -9,-12 -3,-3 -7,-7 -9,-11 -7,-6 -13,-19 -20,-24 -11,9 -8,3 -15,6z"/>
  <path class="fil3" d="M64 59l0 71 -48 1 -8 22 56 0 0 112 -55 1c0,5 6,19 8,21l47 0 0 2c0,4 0,8 0,12 0,5 1,7 -2,10 3,5 18,11 24,12l0 -36 73 0c0,-10 0,-6 -5,-12 -3,-3 -5,-7 -8,-10l-60 0 0 -113c6,0 19,-2 23,1l10 -5c-11,-5 -17,-12 -16,-28 0,0 0,1 -1,1 0,0 0,1 0,1 0,0 0,1 0,1 0,0 0,1 0,1 0,2 0,3 0,5l-16 0 0 -90c-7,4 -16,12 -21,19z"/>
  <path class="fil1" d="M254 330c6,2 10,4 13,9 3,6 2,15 2,21 0,15 0,30 0,45 11,-1 38,-16 48,-22 4,-2 12,-8 15,-11l0 -85 -78 0 0 43z"/>
  <path class="fil1" d="M9 265l55 -1 0 -112 -56 0c0,5 -2,8 -3,13 -6,28 -6,80 4,100z"/>
  <path class="fil4" d="M190 414c34,0 54,0 79,-9 0,-15 0,-30 0,-45 0,-7 1,-16 -2,-21 -3,-6 -7,-7 -13,-9l-64 0 0 85z"/>
  <path class="fil3" d="M255 131c2,5 5,8 9,12 3,4 6,8 9,11 6,-3 48,-1 59,-1l0 41c1,5 -2,3 2,4 11,-1 12,0 20,5l0 -49 53 0 -8 -22 -45 0 0 -68c-1,-3 -18,-17 -21,-20l-1 88 -77 0z"/>
  <path class="fil3" d="M333 234c-3,4 -1,25 -1,31l-63 -1c-2,5 -4,8 -6,12 -1,2 -2,3 -4,5 -3,3 -2,1 -4,5l78 0 0 85c5,-3 19,-14 22,-20l0 -65 44 0 8 -22 -52 0 0 -35c-9,5 -8,5 -21,4z"/>
  <path class="fil2" d="M102 121c-1,16 6,23 16,28l-10 5c-10,19 -5,27 9,37 -16,6 -15,21 -7,31 3,4 6,5 10,7l0 -4 11 -1c6,-2 7,-3 9,-9 2,-4 2,-8 0,-12 -3,-7 -7,-9 -14,-12 -5,-2 -4,-1 -6,-4 8,3 25,11 31,-10 1,-6 0,-7 -2,-13 -10,-10 -12,-8 -22,-15 12,0 18,-2 21,-11l1 -12c-4,-10 -9,-11 -18,-15l-11 -4c-11,1 -14,5 -18,13z"/>
  <path class="fil1" d="M358 209c3,10 0,15 -5,22l0 35 52 0c2,-4 0,0 2,-4l4 -16c3,-15 4,-44 2,-59 0,-1 -1,-4 -1,-6l-1 -3c0,0 0,-1 0,-1 0,0 0,-1 0,-1 -7,6 -18,12 -26,18 -7,5 -20,14 -27,17z"/>
  <path class="fil5" d="M145 405c7,1 14,4 21,5 7,1 16,3 24,4l0 -85 -31 0 -1 0 -13 0 0 75z"/>
  <path class="fil1" d="M276 243l45 -22c-1,-6 0,-12 2,-16 3,-5 7,-5 10,-8 -4,-1 -1,1 -2,-4l0 -41c-11,0 -53,-2 -59,1 1,3 10,14 13,18 8,10 8,7 4,22 -5,17 -8,33 -13,51z"/>
  <path class="fil1" d="M120 331c1,12 -3,19 -11,23 -11,5 -18,-1 -24,-5l0 27c16,10 23,16 43,24 5,2 13,4 16,6l0 -75 13 0 0 -17 -38 18z"/>
  <path class="fil1" d="M145 265l-2 -4c-27,0 -22,-10 -23,-33 -4,-2 -7,-3 -10,-7 -8,-10 -9,-25 7,-31 -14,-9 -20,-18 -9,-37 -4,-3 -17,-1 -23,-1l0 113 60 0z"/>
  <path class="fil6" d="M234 174c-8,-13 -15,-17 -21,-35l-4 1 2 100c5,2 18,2 22,0 3,-3 2,-63 2,-66z"/>
  <path class="fil1" d="M86 323l0 2c0,0 1,-1 1,-1 1,1 2,-8 15,-8 12,0 14,7 16,9 2,-4 -1,-2 9,-7 4,-2 7,-3 11,-5 7,-4 14,-8 21,-11l0 -16 -73 0 0 36z"/>
  <path class="fil1" d="M15 131l48 -1 0 -71 -14 14c-5,6 -9,11 -13,17 -5,7 -19,31 -21,40z"/>
  <path class="fil3" d="M124 18l167 0c-55,-23 -112,-24 -167,0z"/>
  <path class="fil1" d="M399 131c-2,-9 -9,-20 -14,-28 -5,-8 -24,-36 -32,-40l0 68 45 0z"/>
  <path class="fil1" d="M354 202c6,-2 21,-13 28,-17 8,-5 20,-14 28,-17 0,-6 -2,-9 -3,-15l-53 0 0 49z"/>
  <path class="fil1" d="M354 352c6,-3 9,-8 13,-14 4,-5 8,-11 12,-16 5,-7 17,-28 19,-36l-44 0 0 65z"/>
  <path class="fil1" d="M273 254l-4 11 63 1c0,-5 -2,-26 1,-31l-8 -6 -52 25z"/>
  <path class="fil7" d="M135 92c13,1 91,2 98,-1 3,-5 1,-18 1,-25l-5 0c-16,8 -87,20 -95,26z"/>
  <path class="fil6" d="M135 92c8,-6 79,-19 95,-26l-98 0 0 22c1,4 1,2 3,4z"/>
  <path class="fil8" d="M159 330l31 0 0 -35c-17,-3 -20,-8 -32,-13l0 48z"/>
  <path class="fil9" d="M321 221l4 7 8 6c12,1 11,1 21,-4 5,-6 8,-12 5,-22l-4 -7c-8,-5 -9,-6 -20,-5 -3,3 -7,3 -10,8 -3,4 -3,10 -2,16z"/>
  <path class="fil9" d="M85 325l-3 5c-1,10 0,10 3,18 6,4 13,10 24,5 8,-4 12,-11 11,-23l-3 -5c-2,-2 -4,-9 -16,-9 -13,0 -15,9 -15,8 0,0 0,1 -1,1z"/>
  <path class="fil2" d="M121 97l0 -42c-15,-4 -28,5 -25,19 2,11 15,18 25,22z"/>
  <path class="fil1" d="M64 356l-1 -34 -40 -20c6,12 11,19 18,29 6,8 14,19 22,25z"/>
  <path class="fil3" d="M64 356c4,5 6,6 11,10 4,3 7,6 11,9l0 -27c-3,-7 -4,-8 -3,-18l-19 -9 1 34z"/>
  <path class="fil1" d="M18 290c11,5 34,20 44,21 3,-3 2,-5 2,-10 0,-4 0,-8 0,-12l0 -2 -47 0c0,5 0,2 1,3z"/>
  <path class="fil6" d="M170 147c0,21 -3,18 18,18 10,0 8,0 8,-18 0,-10 -2,-8 -19,-8 -7,0 -7,2 -7,8z"/>
  <path class="fil6" d="M170 185c0,20 -3,17 19,17 9,0 7,-3 7,-17 0,-10 0,-8 -19,-8 -7,0 -7,1 -7,8z"/>
  <path class="fil6" d="M170 222c0,21 -2,18 18,18 10,0 8,-2 8,-17 0,-10 1,-9 -19,-9 -7,0 -7,0 -7,7z"/>
  <path class="fil6" d="M170 108c0,21 -1,18 14,18 13,0 12,1 12,-17 0,-10 -3,-9 -12,-9 -8,0 -14,-2 -14,8z"/>
  <path class="fil6" d="M132 224l1 16c18,3 24,2 25,-6 0,-1 0,-5 0,-7 0,-5 0,-7 -1,-12l-16 -1c-3,6 -3,6 -9,9z"/>
  <path class="fil6" d="M23 302l40 20 19 9 3 -5 0 -2c-6,-2 -20,-8 -24,-12 -10,-1 -33,-16 -44,-21 1,4 3,8 5,12z"/>
  <path class="fil6" d="M354 202l4 7c7,-3 19,-12 27,-17 8,-5 19,-12 26,-18 0,-1 0,-3 0,-4l-1 -4c-8,4 -20,12 -28,17 -7,4 -22,15 -28,17z"/>
  <path class="fil6" d="M132 111c9,5 14,6 18,15l7 -1 -1 -23c-5,-2 -18,-1 -24,-1l-1 10z"/>
  <polygon class="fil6" points="276,243 273,254 325,229 321,221 "/>
  <path class="fil6" d="M141 203c14,-1 16,2 16,-8 1,-17 1,-17 -6,-18 -6,21 -23,13 -31,10 2,3 1,2 6,4 7,3 11,5 14,12z"/>
  <path class="fil6" d="M150 164l6 -1c2,-7 1,-16 1,-24l-8 -1c-4,9 -9,11 -21,11 11,7 13,5 22,15z"/>
  <path class="fil6" d="M117 326l3 5 38 -18 0 -9c-7,3 -14,7 -21,11 -4,2 -7,3 -11,5 -10,5 -7,3 -9,7z"/>
  <path class="fil9" d="M211 126c1,-5 2,-9 3,-13 2,-5 4,-7 5,-12l-8 1 -2 4c0,5 -2,18 3,20z"/>
 </g>
</svg>
