<?xml version="1.0" encoding="UTF-8"?>
<!DOCTYPE svg PUBLIC "-//W3C//DTD SVG 1.1//EN" "http://www.w3.org/Graphics/SVG/1.1/DTD/svg11.dtd">
<!-- Creator: CorelDRAW X6 -->
<svg xmlns="http://www.w3.org/2000/svg" xml:space="preserve" width="295mm" height="2450mm" version="1.1" style="shape-rendering:geometricPrecision; text-rendering:geometricPrecision; image-rendering:optimizeQuality; fill-rule:evenodd; clip-rule:evenodd"
viewBox="0 0 29500 245000"
 xmlns:xlink="http://www.w3.org/1999/xlink">
 <defs>
  <style type="text/css">
   <![CDATA[
    .fil0 {fill:#0D70B2}
    .fil6 {fill:#22A7DD}
    .fil7 {fill:#5CC2ED}
    .fil5 {fill:#8E9FA9}
    .fil4 {fill:#ACBAC2}
    .fil8 {fill:#B98045}
    .fil3 {fill:#C8D1DA}
    .fil2 {fill:#DCA46B}
    .fil1 {fill:#DFEAEF}
    .fil9 {fill:#F5FAFB}
   ]]>
  </style>
 </defs>
 <g id="Layer_x0020_1">
  <metadata id="CorelCorpID_0Corel-Layer"/>
  <path class="fil0" d="M-36327 143391l-1 265 0 66 71 26 5 -62c38,-5 123,-7 155,3l4 150 -46 7 -5 76 49 9c6,48 10,107 -4,151l-40 5c11,34 16,39 10,80 41,4 44,8 37,113 -4,68 -17,45 -104,53 11,28 11,51 -2,77l100 4c9,33 7,46 7,77 0,8 0,37 -1,43 -7,49 -45,56 -160,37l-6 -104 -68 4 -2 22c3,148 -25,210 145,212 112,-1 566,19 623,-24 51,-39 31,-211 31,-291 0,-169 10,-139 -75,-244 1,19 12,406 -10,423 -29,12 -114,12 -144,1l-10 -639 28 -6 -10 -82c-33,-16 -18,-97 -18,-130l15 -25c47,-24 27,16 96,-40 43,30 84,112 127,151 3,-113 0,-227 1,-340 1,-157 -48,-147 -195,-147 -113,0 -226,0 -339,0 -111,0 -234,-28 -265,78z"/>
  <path class="fil1" d="M-36554 143299l1 573 101 0c-2,-13 -4,-19 -3,-32 0,-3 1,-5 1,-8 1,-3 1,-5 2,-8 1,-3 2,-6 3,-8 1,-2 2,-5 3,-8 26,-52 47,-79 118,-85l0 -66c-64,-28 -150,-71 -161,-142 -15,-95 67,-148 162,-124 31,-105 154,-78 265,-78 113,0 226,0 339,0 148,0 196,-10 195,147 -1,113 2,227 -1,340 13,29 39,57 58,73l491 -1 4 -556c-42,-48 -203,-136 -273,-164l-1050 0c-69,17 -206,107 -255,147z"/>
  <path class="fil2" d="M-35752 143689l54 -5c-9,29 -22,43 -33,74 -9,26 -14,56 -19,86l10 82c38,109 86,137 135,221 86,105 75,75 75,244 0,80 20,252 -31,291 -57,44 -512,24 -623,24l10 24c21,23 34,45 53,65 34,36 31,13 32,75l0 104 0 59 0 111 6 0 -3 -307c75,35 95,69 202,85l-1 223 410 -1 0 -274c16,-25 8,-8 29,-30 12,-12 16,-20 26,-34 16,-25 29,-47 41,-78l25 -68 17 -67c29,-109 54,-212 83,-323 26,-97 28,-76 -24,-140 -18,-22 -73,-91 -82,-113 -22,-15 -40,-45 -59,-68 -22,-27 -40,-45 -54,-76 -19,-17 -44,-44 -58,-73 -43,-39 -84,-121 -127,-151 -69,56 -49,16 -96,40z"/>
  <path class="fil3" d="M-36691 143409l-3 462 -308 1c-24,40 -40,90 -51,138l361 3 0 717 -361 3c13,20 18,46 27,71l22 53c10,16 1,4 10,12l302 1c0,30 0,59 0,89 0,34 7,45 -11,63 22,29 114,69 151,80l-2 -231 465 -1c-1,-62 3,-38 -32,-75 -19,-20 -32,-42 -53,-65l-381 0 1 -719c38,0 122,-12 146,7l64 -33c-66,-29 -110,-78 -104,-177 -1,3 -3,6 -3,8 -1,2 -2,5 -3,8 -1,3 -2,5 -2,8 -1,3 -1,5 -1,8 -1,13 1,19 3,32l-101 0 -1 -573c-26,15 -44,30 -68,50 -27,22 -39,43 -69,61z"/>
  <path class="fil1" d="M-35473 145144c38,14 64,23 80,59 17,37 10,93 10,137 0,96 2,192 3,288 87,-10 356,-158 403,-212l0 -545 -496 0 0 274z"/>
  <path class="fil1" d="M-37053 144734l361 -3 0 -717 -361 -3c-52,212 -71,410 -20,629 8,35 18,58 20,94z"/>
  <path class="fil4" d="M-35885 145687c53,0 91,11 132,5 45,-7 90,-3 135,-10 74,-11 182,-27 238,-55 0,-96 -3,-192 -3,-288 0,-44 7,-100 -10,-137 -17,-35 -43,-45 -80,-59l-410 1 -2 541z"/>
  <path class="fil3" d="M-35471 143873c15,31 33,49 54,76 19,24 37,54 59,68 41,-19 309,-5 379,-6l2 261c5,32 -11,19 13,24 73,-6 78,-2 129,29l0 -314 331 0c-2,-31 -31,-112 -42,-138l-290 -1 -1 -429c-5,-12 1,-3 -11,-19 -5,-6 -10,-11 -16,-17l-111 -91 -4 556 -491 1z"/>
  <path class="fil3" d="M-34969 144536c-17,28 -8,162 -7,197l-401 -4c-13,31 -25,53 -41,78 -10,15 -14,22 -26,34 -21,22 -13,5 -29,30l496 0 0 545 127 -108c12,-15 7,-6 12,-19l0 -418 282 -1c16,-21 42,-104 51,-137l-333 -1 0 -222c-59,32 -53,35 -131,25z"/>
  <path class="fil2" d="M-36446 143808c-7,99 37,148 104,177l-64 33c-66,118 -30,174 60,234 -103,36 -96,132 -44,195 19,24 37,30 63,46l2 -22 68 -4c40,-16 43,-20 59,-56 14,-27 14,-50 2,-77 -18,-44 -43,-56 -91,-75 -33,-13 -28,-7 -41,-25 51,17 162,69 199,-67 5,-41 0,-46 -10,-80 -61,-63 -74,-50 -142,-93 77,-2 112,-13 137,-72l5 -76c-26,-62 -57,-69 -118,-98l-71 -26c-71,7 -92,33 -118,85z"/>
  <path class="fil1" d="M-34808 144373c19,62 -1,97 -30,137l0 222 333 1c60,-149 61,-454 40,-552l-6 -20c-48,21 -126,79 -172,109 -45,29 -121,84 -165,103z"/>
  <path class="fil5" d="M-36175 145627c53,22 217,59 290,59l2 -541 -199 -1 -6 0 -85 1 -3 482z"/>
  <path class="fil1" d="M-35335 144593l290 -140c-5,-40 -2,-76 16,-104 22,-34 43,-32 65,-52 -23,-5 -8,9 -13,-24l-2 -261c-70,1 -338,-13 -379,6 9,22 64,90 82,113 52,65 49,43 24,140 -29,110 -54,214 -83,323z"/>
  <path class="fil1" d="M-36332 145152c9,75 -17,123 -69,146 -71,32 -117,-7 -153,-35l0 170c94,77 246,158 379,195l3 -482 85 -1 0 -111 -244 118z"/>
  <path class="fil1" d="M-36173 144731l-10 -24c-170,-2 -143,-65 -145,-212 -26,-15 -43,-22 -63,-46 -51,-63 -58,-160 44,-195 -90,-60 -126,-116 -60,-234 -24,-19 -107,-7 -146,-7l-1 719 381 0z"/>
  <path class="fil6" d="M-35604 144147c-50,-84 -97,-112 -135,-221l-28 6 10 639c30,11 115,12 144,-1 22,-18 11,-404 10,-423z"/>
  <path class="fil1" d="M-36552 145102l-3 16c2,-2 4,-8 5,-6 3,6 15,-52 97,-52 76,0 89,44 101,59 12,-24 -5,-14 58,-44 25,-12 43,-22 68,-34 45,-22 92,-49 137,-67l0 -104 -465 1 2 231z"/>
  <path class="fil1" d="M-37002 143873l308 -1 3 -462c-17,14 -30,26 -45,46 -44,58 -75,78 -132,164 -44,65 -112,173 -134,254z"/>
  <path class="fil3" d="M-36299 143152l1050 0c-98,-60 -323,-104 -449,-107 -39,-1 -40,-8 -70,-9l-7 0 -148 12c-112,16 -286,51 -376,103z"/>
  <path class="fil1" d="M-34835 144326c41,-14 136,-83 179,-111 48,-32 128,-88 177,-111 -3,-39 -19,-79 -20,-82l-5 -11 -331 0 0 314z"/>
  <path class="fil1" d="M-34838 145289c70,-37 266,-326 283,-419l-282 1 0 418z"/>
  <path class="fil1" d="M-34547 143873l-197 -335c-30,-35 -57,-76 -94,-96l1 429 290 1z"/>
  <path class="fil1" d="M-35352 144660l-25 68 401 4c-1,-34 -10,-169 7,-197l-54 -36 -330 161z"/>
  <path class="fil7" d="M-36238 143629c83,5 581,10 628,-4 19,-34 9,-112 9,-162l-30 -3c-102,49 -559,128 -608,168z"/>
  <path class="fil6" d="M-36238 143629c49,-40 506,-119 608,-168l-627 0 0 143c7,24 6,15 18,25z"/>
  <path class="fil8" d="M-36082 145144l199 1 1 -223c-107,-17 -127,-50 -202,-85l3 307z"/>
  <path class="fil9" d="M-35045 144453l23 46 54 36c78,10 72,6 131,-25 29,-40 49,-76 30,-137l-27 -47c-51,-31 -57,-35 -129,-29 -22,20 -43,19 -65,52 -18,28 -21,64 -16,104z"/>
  <path class="fil9" d="M-36554 145118l-19 33c-5,62 1,65 20,112 36,28 82,67 153,35 52,-23 78,-71 69,-146l-19 -32c-13,-16 -25,-59 -101,-59 -83,0 -94,58 -97,52 -1,-2 -3,4 -5,6z"/>
  <path class="fil1" d="M-36692 145323l-6 -227 -254 -130c10,46 85,152 115,191 23,30 44,58 69,83 29,28 47,58 76,83z"/>
  <path class="fil2" d="M-36328 143656l1 -265c-94,-25 -176,29 -162,124 11,70 97,113 161,142z"/>
  <path class="fil3" d="M-36692 145323c30,17 38,34 64,57 25,21 46,39 73,53l0 -170c-19,-47 -25,-50 -20,-112l-124 -55 6 227z"/>
  <path class="fil1" d="M-36703 145022c19,-18 12,-29 11,-63 0,-30 0,-59 0,-89l-302 -1 0 16c66,30 231,132 291,136z"/>
  <path class="fil6" d="M-36014 143976c0,133 -18,113 112,113 62,0 52,0 52,-113 0,-61 -15,-50 -119,-50 -42,0 -45,10 -45,50z"/>
  <path class="fil6" d="M-36014 144222c0,128 -18,111 121,111 55,0 43,-22 43,-111 0,-63 -1,-52 -120,-52 -45,0 -44,9 -44,52z"/>
  <path class="fil6" d="M-36014 144459c0,131 -14,117 112,117 62,0 52,-14 52,-109 0,-64 9,-54 -120,-54 -45,0 -44,1 -44,46z"/>
  <path class="fil6" d="M-36014 143731c0,131 -5,116 87,116 81,0 77,9 77,-108 0,-64 -19,-57 -77,-57 -53,0 -87,-14 -87,48z"/>
  <path class="fil6" d="M-36258 144468l6 104c115,19 152,12 160,-37 1,-6 1,-35 1,-43 0,-31 2,-44 -7,-77l-100 -4c-16,35 -20,40 -59,56z"/>
  <path class="fil6" d="M-36951 144966l254 130 124 55 19 -33 3 -16c-37,-11 -129,-50 -151,-80 -60,-4 -224,-106 -291,-136l42 80z"/>
  <path class="fil6" d="M-34835 144326l27 47c44,-19 120,-74 165,-103 47,-30 125,-88 172,-109 0,-32 -3,-33 -8,-57 -48,22 -128,79 -177,111 -44,29 -139,97 -179,111z"/>
  <path class="fil6" d="M-36258 143748c61,29 92,36 118,98l46 -7 -4 -150c-32,-10 -117,-9 -155,-3l-5 62z"/>
  <polygon class="fil6" points="-35335,144593 -35352,144660 -35023,144499 -35045,144453 "/>
  <path class="fil6" d="M-36196 144335c87,-8 100,15 104,-53 7,-106 3,-110 -37,-113 -37,136 -148,84 -199,67 13,18 9,12 41,25 47,18 73,31 91,75z"/>
  <path class="fil6" d="M-36140 144088l40 -5c14,-45 10,-104 4,-151l-49 -9c-25,59 -60,70 -137,72 68,43 81,29 142,93z"/>
  <path class="fil6" d="M-36351 145119l19 32 244 -118 0 -59c-45,18 -92,45 -137,67 -24,12 -42,22 -68,34 -63,30 -46,21 -58,44z"/>
  <path class="fil9" d="M-35749 143844c5,-31 10,-60 19,-86 11,-31 23,-45 33,-74l-54 5 -15 25c0,33 -15,114 18,130z"/>
 </g>
</svg>
