<?xml version="1.0" encoding="UTF-8"?>
<!DOCTYPE svg PUBLIC "-//W3C//DTD SVG 1.1//EN" "http://www.w3.org/Graphics/SVG/1.1/DTD/svg11.dtd">
<!-- Creator: CorelDRAW X6 -->
<svg xmlns="http://www.w3.org/2000/svg" xml:space="preserve" width="26.4583mm" height="26.4583mm" version="1.1" style="shape-rendering:geometricPrecision; text-rendering:geometricPrecision; image-rendering:optimizeQuality; fill-rule:evenodd; clip-rule:evenodd"
viewBox="0 0 664 664"
 xmlns:xlink="http://www.w3.org/1999/xlink">
 <defs>
  <style type="text/css">
   <![CDATA[
    .fil5 {fill:#2F318B}
    .fil1 {fill:#E62129}
    .fil2 {fill:#FFF000}
    .fil0 {fill:#85D4EE}
    .fil3 {fill:#B0C3CC}
    .fil4 {fill:#E2E9EB}
   ]]>
  </style>
 </defs>
 <g id="Layer_x0020_1">
  <metadata id="CorelCorpID_0Corel-Layer"/>
  <path class="fil0" d="M332 0c183,0 332,149 332,332 0,183 -149,332 -332,332 -183,0 -332,-149 -332,-332 0,-183 149,-332 332,-332z"/>
  <path class="fil1" d="M100 290l153 41c11,-22 25,-87 32,-115 29,-113 -124,-155 -155,-42 -8,29 -28,90 -30,115z"/>
  <path class="fil2" d="M288 390l-41 153c15,8 91,26 114,32 91,24 130,-65 96,-119 -16,-25 -35,-31 -54,-37 -23,-6 -97,-29 -114,-29z"/>
  <path class="fil3" d="M73 394c-28,57 6,116 69,120 39,-6 65,-19 76,-55 6,-20 19,-63 21,-81 -17,-7 -61,-18 -81,-22 -37,-8 -61,8 -86,39z"/>
  <path class="fil4" d="M288 390c-15,-7 -30,-7 -44,-15 0,-16 7,-29 9,-44l-153 -41 -27 104c24,-31 48,-47 86,-39 20,4 64,15 81,22 -2,19 -15,62 -21,81 -12,36 -38,49 -76,55 16,9 86,27 104,29l41 -153z"/>
  <path class="fil5" d="M459 584l67 1c-30,-53 -39,4 -40,-94l69 -3c-11,-45 3,-7 -40,-29l-1 -294c-65,-37 -48,-50 -53,-133 -2,4 -2,6 -2,4 0,-1 -1,-2 -2,-4 -5,83 12,96 -53,133l-1 294c-43,21 -29,-16 -40,29l69 3c0,97 -10,41 -40,94l67 -1z"/>
 </g>
</svg>
