<?xml version="1.0" encoding="UTF-8"?>
<!DOCTYPE svg PUBLIC "-//W3C//DTD SVG 1.1//EN" "http://www.w3.org/Graphics/SVG/1.1/DTD/svg11.dtd">
<!-- Creator: CorelDRAW X6 -->
<svg xmlns="http://www.w3.org/2000/svg" xml:space="preserve" width="26.4583mm" height="26.458mm" version="1.1" style="shape-rendering:geometricPrecision; text-rendering:geometricPrecision; image-rendering:optimizeQuality; fill-rule:evenodd; clip-rule:evenodd"
viewBox="0 0 99 99"
 xmlns:xlink="http://www.w3.org/1999/xlink">
 <defs>
  <style type="text/css">
   <![CDATA[
    .fil0 {fill:#00B3E5}
    .fil1 {fill:#F9FFF9}
   ]]>
  </style>
 </defs>
 <g id="Layer_x0020_1">
  <metadata id="CorelCorpID_0Corel-Layer"/>
  <path class="fil0" d="M50 0c27,0 50,22 50,50 0,27 -22,50 -50,50 -27,0 -50,-22 -50,-50 0,-27 22,-50 50,-50z"/>
  <g id="_687419296">
   <path class="fil1" d="M17 70c2,1 6,1 9,2 7,1 14,4 20,8 4,3 2,3 7,0 1,-1 2,-1 3,-2 2,-1 5,-3 8,-4 4,-2 9,-3 14,-3 2,0 3,0 4,-2 0,-4 0,-45 0,-46 -1,-3 -16,1 -18,2 -4,2 -8,3 -11,6 -1,1 -1,1 -2,1 -1,1 -1,1 -2,1 -6,-6 -15,-10 -24,-11 -2,0 -8,-2 -9,1 0,2 0,44 0,46z"/>
   <path class="fil0" d="M21 67c4,1 9,0 21,6 1,1 5,3 6,3 0,-2 -1,-10 0,-12 1,0 2,0 3,0 1,2 0,9 0,12 0,0 5,-3 6,-3 10,-5 15,-5 21,-6l0 -40c-1,0 -3,0 -4,0 0,2 0,12 0,12 0,0 1,0 -1,0 -1,0 -1,0 -1,0 -1,0 -1,-1 -2,-1 -1,1 -1,1 -2,2 -4,4 -2,-7 -2,-11 -3,0 -9,4 -11,6 -2,2 -3,2 -3,5 0,2 1,7 0,9 -1,0 -2,0 -3,0l0 0c-1,-2 1,-10 -1,-11 -1,-1 -5,-4 -7,-5 -3,-1 -6,-3 -9,-4 -2,-1 -9,-2 -11,-2l0 40z"/>
   <path class="fil1" d="M39 21c5,3 9,9 10,10 1,-2 5,-6 7,-8 1,-1 2,-2 3,-2 0,-1 0,-3 0,-4 -4,-1 -9,11 -10,12l0 0c-1,-2 -3,-8 -8,-12 -3,-2 -2,2 -2,4z"/>
   <path class="fil1" d="M27 21c12,3 11,4 17,6 -1,-2 -12,-11 -17,-10 0,1 0,3 0,4z"/>
   <path class="fil1" d="M55 28c6,-3 10,-5 17,-7 0,-4 1,-5 -3,-3 -5,2 -12,6 -14,10z"/>
  </g>
 </g>
</svg>
