<?xml version="1.0" encoding="UTF-8"?>
<!DOCTYPE svg PUBLIC "-//W3C//DTD SVG 1.1//EN" "http://www.w3.org/Graphics/SVG/1.1/DTD/svg11.dtd">
<!-- Creator: CorelDRAW X6 -->
<svg xmlns="http://www.w3.org/2000/svg" xml:space="preserve" width="26.4584mm" height="26.4584mm" version="1.1" style="shape-rendering:geometricPrecision; text-rendering:geometricPrecision; image-rendering:optimizeQuality; fill-rule:evenodd; clip-rule:evenodd"
viewBox="0 0 1121 1121"
 xmlns:xlink="http://www.w3.org/1999/xlink">
 <defs>
  <style type="text/css">
   <![CDATA[
    .fil0 {fill:#FFF000}
    .fil1 {fill:black}
   ]]>
  </style>
 </defs>
 <g id="Layer_x0020_1">
  <metadata id="CorelCorpID_0Corel-Layer"/>
  <path class="fil0" d="M561 0c-310,0 -561,251 -561,561 0,310 251,561 561,561 310,0 561,-251 561,-561 0,-310 -251,-561 -561,-561z"/>
  <g id="_689964056">
   <path class="fil1" d="M321 414c0,28 5,43 5,58 -19,9 -35,11 -62,32 -18,14 -35,28 -49,45 -32,39 -50,87 -53,137l0 27c1,13 2,26 5,39 2,12 9,26 9,36 11,-3 18,-9 26,-14 -15,-31 -5,-81 6,-109 39,-96 178,-126 252,-50 10,10 16,16 23,27 12,-8 25,-14 36,-22 -6,-28 3,-49 31,-55 0,-86 2,-5 -94,-80 -76,-59 -77,-196 20,-254 49,-30 47,-2 47,-47 -27,1 -62,17 -81,27 -67,36 -124,117 -124,204z"/>
   <path class="fil1" d="M492 652c81,153 -104,296 -231,202 -31,-23 -13,-26 -48,-7 34,51 117,91 188,91 56,0 104,-18 145,-49 7,-5 10,-9 16,-13l15 12c74,56 179,66 260,19 28,-16 55,-36 72,-62 -7,-4 -17,-10 -24,-12 -7,5 -13,11 -21,18 -74,55 -188,38 -236,-57 -22,-43 -21,-99 2,-141 -6,-4 -29,-17 -36,-19 -28,19 -35,20 -65,0 -8,2 -26,14 -36,19z"/>
   <path class="fil1" d="M596 212c15,1 38,12 49,19 75,47 97,146 47,222 -3,4 -5,7 -8,11 -3,4 -5,7 -9,11 -17,19 -48,36 -73,42 -12,3 -23,4 -35,6l0 39c8,6 17,7 24,14 14,14 13,28 9,44 8,6 27,18 39,19 2,-7 14,-20 20,-26 70,-72 199,-55 251,42 28,53 11,91 11,119 7,5 14,10 24,12 13,-57 14,-34 14,-81l0 -23c0,-74 -48,-140 -101,-180 -24,-18 -39,-20 -62,-32 0,-39 17,-64 -13,-141 -19,-47 -61,-96 -104,-118 -20,-10 -56,-28 -83,-28l0 29z"/>
   <path class="fil1" d="M430 428c10,18 22,37 39,48 34,-18 47,-29 96,-29 54,0 78,26 89,29 16,-11 29,-31 39,-48 -23,-12 -25,-17 -57,-30 -47,-18 -101,-17 -149,0 -24,8 -39,20 -57,30z"/>
   <path class="fil1" d="M343 618c0,67 38,119 81,157 15,13 33,21 51,31 9,-13 21,-37 22,-58 -67,-35 -94,-81 -94,-159 -15,-7 -38,-10 -60,-10l0 39z"/>
   <path class="fil1" d="M716 590c9,38 -9,79 -25,103 -18,27 -40,42 -66,56 5,23 10,38 22,55 32,-3 78,-51 98,-80 32,-48 35,-86 35,-143 -19,-4 -48,2 -63,10z"/>
  </g>
 </g>
</svg>
