<?xml version="1.0" encoding="UTF-8" standalone="no"?>
<svg
   xmlns:dc="http://purl.org/dc/elements/1.1/"
   xmlns:cc="http://creativecommons.org/ns#"
   xmlns:rdf="http://www.w3.org/1999/02/22-rdf-syntax-ns#"
   xmlns:svg="http://www.w3.org/2000/svg"
   xmlns="http://www.w3.org/2000/svg"
   xmlns:sodipodi="http://sodipodi.sourceforge.net/DTD/sodipodi-0.dtd"
   xmlns:inkscape="http://www.inkscape.org/namespaces/inkscape"
   width="23"
   height="23"
   viewBox="0 0 23 23"
   id="svg2"
   version="1.1"
   inkscape:version="0.91 r13725"
   sodipodi:docname="search-kecil.svg">
  <metadata
     id="metadata26">
    <rdf:RDF>
      <cc:Work
         rdf:about="">
        <dc:format>image/svg+xml</dc:format>
        <dc:type
           rdf:resource="http://purl.org/dc/dcmitype/StillImage" />
        <dc:title></dc:title>
      </cc:Work>
    </rdf:RDF>
  </metadata>
  <defs
     id="defs24" />
  <sodipodi:namedview
     pagecolor="#ffffff"
     bordercolor="#666666"
     borderopacity="1"
     objecttolerance="10"
     gridtolerance="10"
     guidetolerance="10"
     inkscape:pageopacity="0"
     inkscape:pageshadow="2"
     inkscape:window-width="1366"
     inkscape:window-height="705"
     id="namedview22"
     showgrid="false"
     inkscape:zoom="2.36"
     inkscape:cx="50"
     inkscape:cy="50"
     inkscape:window-x="-8"
     inkscape:window-y="-8"
     inkscape:window-maximized="1"
     inkscape:current-layer="svg2" />
  <path
     d="m 11.652542,1.3898305 c -5.733415,0 -10.3813556,4.6479407 -10.3813556,10.3813555 0,5.733416 4.6479406,10.381356 10.3813556,10.381356 5.733416,0 10.381356,-4.64794 10.381356,-10.381356 0,-5.7334148 -4.64794,-10.3813555 -10.381356,-10.3813555 z"
     id="path4"
     inkscape:connector-curvature="0"
     style="fill:#3db39e" />
  <path
     d="M 17.719822,16.479131 C 17.42603,16.185338 17.003508,16.104987 16.63497,16.230186 l -0.980416,-0.980622 c 0.698666,-0.918544 1.114336,-2.06423 1.114336,-3.307708 0,-3.0201441 -2.44834,-5.468483 -5.468692,-5.468483 -3.020143,0 -5.468482,2.4483389 -5.468482,5.468483 0,3.020352 2.448339,5.46869 5.468482,5.46869 1.243272,0 2.389166,-0.41567 3.307708,-1.114542 l 0.980624,0.980622 c -0.124992,0.368124 -0.04465,0.79106 0.248944,1.084644 l 1.852656,1.852658 c 0.725034,-0.519484 1.38176,-1.128454 1.950866,-1.813208 l -1.921174,-1.921589 z"
     id="path6"
     inkscape:connector-curvature="0"
     style="fill:#37a18e" />
  <path
     d="m 15.50091,14.566678 -1.052669,1.052876 3.997861,3.99786 c 0.375596,-0.32535 0.727317,-0.677486 1.052876,-1.052876 l -3.998068,-3.99786 z"
     id="path8"
     inkscape:connector-curvature="0"
     style="fill:#f5f5f5" />
  <path
     d="m 11.341102,5.9576272 c 3.03883,0 5.502118,2.463288 5.502118,5.5021188 0,3.038622 -2.463288,5.502118 -5.502118,5.502118 -3.0388308,0 -5.502119,-2.463496 -5.502119,-5.502118 0,-3.0388308 2.4632882,-5.5021188 5.502119,-5.5021188 z"
     id="path10"
     inkscape:connector-curvature="0"
     style="fill:#ffffff" />
  <path
     d="m 11.341102,6.9957628 c 2.465364,0 4.463982,1.9986186 4.463982,4.4639832 0,2.465364 -1.998618,4.463982 -4.463982,4.463982 -2.4653648,0 -4.4639834,-1.998618 -4.4639834,-4.463982 0,-2.4653646 1.9986186,-4.4639832 4.4639834,-4.4639832 z"
     id="path12"
     inkscape:connector-curvature="0"
     style="fill:#82cee8" />
  <path
     d="m 9.2002584,12.472758 c -0.1036059,-0.103814 -0.2719915,-0.103814 -0.375805,0 -0.1038136,0.103814 -0.1038136,0.2722 0,0.376012 l 1.1276228,1.127416 c 0.1038138,0.103814 0.2719918,0.103814 0.3758048,0 0.103814,-0.103606 0.103814,-0.271992 0,-0.375805 L 9.2002584,12.472758 Z m 2.3742156,0.92394 -2.1705334,-2.170534 c -0.1027754,-0.102774 -0.2697076,-0.102774 -0.372483,0 -0.1027754,0.102776 -0.1027754,0.269708 0,0.372484 l 2.1705344,2.170534 c 0.102774,0.102776 0.269706,0.102776 0.372482,0 0.102776,-0.102776 0.102776,-0.2695 0,-0.372484 z"
     id="path14"
     inkscape:connector-curvature="0"
     style="fill:#a8ddef" />
  <path
     d="m 17.79955,16.024428 c -0.414424,-0.414424 -1.086304,-0.414424 -1.500936,0 l -0.39283,0.39283 c -0.414424,0.414632 -0.414424,1.086512 0,1.500936 l 2.077724,2.077726 c 0.709878,-0.547306 1.346462,-1.18389 1.893767,-1.893768 L 17.79955,16.024428 Z"
     id="path16"
     inkscape:connector-curvature="0"
     style="fill:#efc75e" />
  <path
     d="m 16.325606,17.50294 c -0.413802,-0.4138 -0.414216,-1.084436 -0.0016,-1.499068 l -0.02513,0.02055 -0.39283,0.39283 c -0.414424,0.414632 -0.414424,1.086513 0,1.500937 l 2.077724,2.077725 c 0.156759,-0.12084 0.309572,-0.246454 0.459064,-0.375806 L 16.32566,17.502934 Z"
     id="path18"
     inkscape:connector-curvature="0"
     style="fill:#d7b354" />
  <path
     d="m 11.341102,6.9957628 c -1.3913096,0 -2.6335428,0.6367924 -3.4522164,1.6346482 0.7702966,-0.6320169 1.7552796,-1.0117669 2.8293344,-1.0117669 2.465364,0 4.463983,1.9986183 4.463983,4.4639819 0,1.074056 -0.37975,2.059038 -1.011767,2.829336 0.997856,-0.818674 1.634648,-2.060908 1.634648,-3.452216 0,-2.4653646 -1.998618,-4.4639832 -4.463982,-4.4639832 z"
     id="path20"
     inkscape:connector-curvature="0"
     style="fill:#72b5cc" />
</svg>
