<?xml version="1.0" encoding="UTF-8"?>
<!DOCTYPE svg PUBLIC "-//W3C//DTD SVG 1.1//EN" "http://www.w3.org/Graphics/SVG/1.1/DTD/svg11.dtd">
<!-- Creator: CorelDRAW X6 -->
<svg xmlns="http://www.w3.org/2000/svg" xml:space="preserve" width="26.4584mm" height="26.4584mm" version="1.1" style="shape-rendering:geometricPrecision; text-rendering:geometricPrecision; image-rendering:optimizeQuality; fill-rule:evenodd; clip-rule:evenodd"
viewBox="0 0 208 208"
 xmlns:xlink="http://www.w3.org/1999/xlink">
 <defs>
  <style type="text/css">
   <![CDATA[
    .fil31 {fill:none}
    .fil0 {fill:#BBDDDD}
    .fil22 {fill:#308DC9;fill-rule:nonzero}
    .fil4 {fill:#332F2F;fill-rule:nonzero}
    .fil3 {fill:#3A3943;fill-rule:nonzero}
    .fil28 {fill:#3C2C27;fill-rule:nonzero}
    .fil27 {fill:#3D2D27;fill-rule:nonzero}
    .fil16 {fill:#483028;fill-rule:nonzero}
    .fil14 {fill:#49332A;fill-rule:nonzero}
    .fil2 {fill:#4C4955;fill-rule:nonzero}
    .fil21 {fill:#74C1E5;fill-rule:nonzero}
    .fil8 {fill:#97D0EB;fill-rule:nonzero}
    .fil1 {fill:#98B9B9;fill-rule:nonzero}
    .fil20 {fill:#A9CACA;fill-rule:nonzero}
    .fil12 {fill:#B1B2B2;fill-rule:nonzero}
    .fil26 {fill:#B2B5A0;fill-rule:nonzero}
    .fil19 {fill:#B4C5B8;fill-rule:nonzero}
    .fil5 {fill:#B4DEF2;fill-rule:nonzero}
    .fil13 {fill:#C2C2C3;fill-rule:nonzero}
    .fil24 {fill:#C7C7C6;fill-rule:nonzero}
    .fil23 {fill:#DBDCDC;fill-rule:nonzero}
    .fil11 {fill:#E0CBAC;fill-rule:nonzero}
    .fil25 {fill:#EA5E42;fill-rule:nonzero}
    .fil29 {fill:#EA986F;fill-rule:nonzero}
    .fil17 {fill:#EC996F;fill-rule:nonzero}
    .fil10 {fill:#EEEFEE;fill-rule:nonzero}
    .fil7 {fill:#EFAD87;fill-rule:nonzero}
    .fil15 {fill:#F2BEA0;fill-rule:nonzero}
    .fil6 {fill:#F7D5C1;fill-rule:nonzero}
    .fil30 {fill:#F7F9F8;fill-rule:nonzero}
    .fil18 {fill:#FBE8DD;fill-rule:nonzero}
    .fil9 {fill:#FEFEFE;fill-rule:nonzero}
   ]]>
  </style>
   <clipPath id="id0">
    <path d="M104 0c-57,0 -104,46 -104,104 0,57 46,104 104,104 57,0 104,-46 104,-104 0,-57 -46,-104 -104,-104z"/>
   </clipPath>
 </defs>
 <g id="Layer_x0020_1">
  <metadata id="CorelCorpID_0Corel-Layer"/>
  <path class="fil0" d="M104 0c-57,0 -104,46 -104,104 0,57 46,104 104,104 57,0 104,-46 104,-104 0,-57 -46,-104 -104,-104z"/>
  <g style="clip-path:url(#id0)">
   <g id="_613769712">
    <g>
     <path id="1" class="fil1" d="M65 326c-27,0 -49,-3 -49,-7 0,-2 10,-4 24,-6 2,4 5,6 10,6 5,0 8,-3 10,-7 2,0 3,0 5,0 1,0 2,0 3,0 2,4 5,7 10,7 4,0 8,-2 10,-6 15,1 26,3 26,6 0,4 -22,7 -49,7z"/>
     <path class="fil2" d="M50 319c-6,0 -11,-5 -11,-11l0 -68c0,-6 5,-11 11,-11 6,0 11,5 11,11l0 68c0,6 -5,11 -11,11z"/>
     <polygon class="fil3" points="60,251 39,244 39,243 60,243 "/>
     <path class="fil4" d="M63 316c0,7 -30,7 -30,0 0,-7 7,-10 15,-10 8,0 15,3 15,10z"/>
     <path class="fil2" d="M78 319c-6,0 -11,-5 -11,-11l0 -68c0,-6 5,-11 11,-11 6,0 11,5 11,11l0 68c0,6 -5,11 -11,11z"/>
     <polygon class="fil3" points="89,251 67,244 67,243 89,243 "/>
     <path class="fil4" d="M95 316c0,7 -30,7 -30,0 0,-7 7,-10 15,-10 8,0 15,3 15,10z"/>
     <path class="fil5" d="M99 132c0,17 -15,30 -35,30 -19,0 -35,-13 -35,-30 0,-17 15,-30 35,-30 19,0 35,13 35,30z"/>
     <polygon class="fil6" points="54,109 74,109 74,90 54,90 "/>
     <path class="fil7" d="M74 100l-20 -7 0 -1c3,2 6,2 10,2l0 0 0 0c4,0 7,-1 10,-2l0 8z"/>
     <polygon class="fil2" points="69,112 67,116 61,116 59,112 64,108 "/>
     <polygon class="fil8" points="54,99 64,108 58,115 49,102 "/>
     <polygon class="fil8" points="74,99 64,108 70,115 79,102 "/>
     <polygon class="fil2" points="67,117 69,150 64,155 59,150 61,117 "/>
     <path class="fil9" d="M76 101l-12 50 -12 -50c-15,4 -26,17 -26,33l0 110 76 0 0 -110c0,-16 -11,-29 -26,-33z"/>
     <polygon class="fil10" points="79,117 87,112 76,101 64,149 64,149 52,101 41,112 49,117 45,121 63,149 63,243 65,243 65,149 83,121 "/>
     <polygon class="fil10" points="32,198 57,198 57,195 32,195 "/>
     <polygon class="fil9" points="32,221 57,221 57,198 32,198 "/>
     <polygon class="fil10" points="71,198 96,198 96,195 71,195 "/>
     <polygon class="fil9" points="71,221 96,221 96,198 71,198 "/>
     <polygon class="fil11" points="69,222 32,201 60,153 97,175 "/>
     <polygon class="fil12" points="79,174 70,168 72,160 85,168 "/>
     <path class="fil6" d="M79 209c3,-6 2,-5 -4,-10 3,1 4,0 5,-1 1,-3 -6,-4 -15,-6 -1,0 -1,0 -2,0l-10 -7 -7 11 14 9c1,1 3,3 5,4 7,5 11,6 14,1z"/>
     <path class="fil10" d="M46 177c-12,-16 -18,-36 -1,-52 -15,16 -8,34 4,48l-2 4z"/>
     <path class="fil9" d="M47 200c-19,-17 -29,-35 -29,-53 0,-21 15,-35 16,-36l11 14 0 0c0,0 -9,9 -9,22 0,13 8,26 23,40l-11 13z"/>
     <path class="fil6" d="M156 107c-2,-2 -8,-1 -14,4 1,-3 1,-4 0,-5 -3,-1 -5,5 -10,13 0,1 -1,1 -1,2l-9 8 9 9 12 -11c2,-1 4,-2 5,-4 6,-6 9,-13 7,-16z"/>
     <polygon class="fil10" points="102,154 94,137 102,142 "/>
     <path class="fil9" d="M116 156l0 0c-2,0 -5,-1 -6,-3l-15 -16 -2 -27 23 25 15 -15 12 12 -21 22c-2,2 -4,3 -6,3z"/>
     <path class="fil12" d="M85 120c0,-1 -1,-20 -11,-23l0 2c9,3 9,21 9,21l0 1 2 0 0 -1z"/>
     <path class="fil13" d="M54 99l0 -2 0 0c-16,5 -10,44 -9,46l0 1 2 0 0 -1c0,0 -6,-39 8,-44z"/>
     <path class="fil12" d="M77 129c0,-2 1,-8 7,-8 6,0 7,6 7,8 0,6 -2,12 -7,15 -4,-3 -7,-10 -7,-15zm13 18c-2,0 -3,-1 -4,-1 5,-4 7,-11 7,-16 0,-6 -4,-9 -8,-9 -5,0 -8,4 -8,9 0,6 2,13 7,16 -1,1 -3,1 -4,1 0,0 -1,0 -1,1 0,0 0,1 1,1l0 0c2,0 4,-1 6,-2 2,1 4,2 6,2l0 0c0,0 1,0 1,-1 0,0 0,-1 -1,-1z"/>
     <path class="fil2" d="M91 149c0,0 -1,0 -1,0 -1,0 -1,-1 -1,-1 0,-1 1,-1 1,-1 1,0 2,0 2,0 1,0 1,0 1,1 0,1 0,1 -1,1 -1,0 -1,0 -1,0z"/>
     <path class="fil2" d="M77 149c0,0 -1,0 -1,0 -1,0 -1,-1 -1,-1 0,-1 1,-1 1,-1 1,0 2,0 2,0 1,0 1,0 1,1 0,1 0,1 -1,1 0,0 -1,0 -1,0z"/>
     <path class="fil10" d="M51 144c0,3 -2,5 -5,5 -3,0 -5,-2 -5,-5 0,-3 2,-5 5,-5 3,0 5,2 5,5z"/>
     <path class="fil12" d="M46 137c-4,0 -7,3 -7,7 0,4 3,7 7,7 4,0 7,-3 7,-7 0,-4 -3,-7 -7,-7zm0 2c3,0 5,2 5,5 0,3 -2,5 -5,5 -3,0 -5,-2 -5,-5 0,-3 2,-5 5,-5z"/>
     <path class="fil12" d="M49 144c0,2 -2,4 -4,4 -2,0 -4,-2 -4,-4 0,-2 2,-4 4,-4 2,0 4,2 4,4z"/>
     <path class="fil6" d="M64 30c-12,0 -21,10 -21,21l0 22c0,12 10,21 21,21 12,0 21,-10 21,-21l0 -22c0,-12 -10,-21 -21,-21z"/>
     <path class="fil14" d="M87 36c1,-2 2,-5 2,-8 -5,0 -10,-2 -12,-3 -4,-2 -8,-3 -14,-3 -18,0 -23,14 -23,14 -4,9 -3,22 2,34 0,0 0,0 0,1 0,-1 0,-2 0,-3 0,-4 0,-11 0,-11 4,-5 4,-13 4,-13 0,0 8,2 16,2 9,0 16,-2 16,-2 0,0 1,8 4,13 0,0 0,7 0,11 0,1 0,2 0,3 0,0 0,0 0,-1 5,-12 6,-25 2,-34z"/>
     <path class="fil7" d="M54 66c-2,0 -3,-1 -3,-3 0,-2 1,-3 3,-3 0,0 0,0 0,0 2,0 3,1 3,3 0,2 -1,3 -3,3 0,0 0,0 0,0z"/>
     <path class="fil14" d="M58 62c0,2 -1,3 -3,3 -2,0 -3,-1 -3,-3 0,-2 1,-3 3,-3 2,0 3,1 3,3z"/>
     <path class="fil9" d="M56 61c0,0 0,1 -1,1 0,0 -1,0 -1,-1 0,0 0,-1 1,-1 0,0 1,0 1,1z"/>
     <path class="fil14" d="M77 62c0,2 -1,3 -3,3 -2,0 -3,-1 -3,-3 0,-2 1,-3 3,-3 2,0 3,1 3,3z"/>
     <path class="fil9" d="M76 61c0,0 0,1 -1,1 0,0 -1,0 -1,-1 0,0 0,-1 1,-1 0,0 1,0 1,1z"/>
     <path class="fil6" d="M43 60c-2,0 -4,2 -4,4l0 4c0,2 2,4 4,4 2,0 4,-2 4,-4l0 -4c0,-2 -2,-4 -4,-4z"/>
     <path class="fil6" d="M85 60c-2,0 -4,2 -4,4l0 4c0,2 2,4 4,4 2,0 4,-2 4,-4l0 -4c0,-2 -2,-4 -4,-4z"/>
     <path class="fil15" d="M64 95l0 -18 -5 0c0,0 2,-10 5,-16l0 -14c9,0 16,-2 16,-2 0,0 1,8 4,13l0 0c0,0 0,0 0,0 0,0 0,0 0,0 0,0 0,1 0,3l0 1c-2,0 -4,2 -4,4l0 4c0,2 2,4 4,4l0 0c0,1 0,2 0,4 -2,10 -10,18 -21,18zm6 -32c0,0 0,0 0,1 0,2 2,3 3,3 0,0 0,0 0,0 2,0 3,-2 3,-3 0,0 0,0 0,0 0,0 0,0 0,-1 0,-2 -2,-3 -3,-3 0,0 0,0 0,0 -2,0 -3,2 -3,3 0,0 0,0 0,0z"/>
     <path class="fil16" d="M85 57c0,0 0,0 0,0 0,0 0,0 0,0z"/>
     <path class="fil17" d="M74 66c-2,0 -3,-1 -3,-3 0,0 0,0 0,-1 0,2 2,3 3,3 0,0 0,0 0,0 2,0 3,-1 3,-3 0,0 0,0 0,0 0,2 -1,3 -3,3 0,0 0,0 0,0z"/>
     <path class="fil16" d="M74 65c-2,0 -3,-1 -3,-3 0,0 0,0 0,0 0,-2 1,-3 3,-3 0,0 0,0 0,0 2,0 3,1 3,3 0,0 0,0 0,1 0,2 -2,3 -3,3 0,0 0,0 0,0zm1 -5c0,0 0,0 0,0 0,0 -1,0 -1,1 0,0 0,1 1,1 0,0 0,0 0,0 0,0 1,0 1,-1 0,0 0,-1 -1,-1z"/>
     <path class="fil18" d="M75 62c0,0 -1,0 -1,-1 0,0 0,-1 1,-1 0,0 0,0 0,0 0,0 1,0 1,1 0,0 0,1 -1,1 0,0 0,0 0,0z"/>
     <path class="fil19" d="M89 64c0,0 0,0 0,0 0,0 0,0 0,0zm0 0c0,0 0,0 0,0 0,0 0,0 0,0z"/>
     <path class="fil15" d="M85 73l0 0c-2,0 -4,-2 -4,-4l0 -4c0,-2 2,-4 4,-4l0 0 0 0c1,0 2,0 3,1 1,1 1,2 2,3 0,0 0,0 0,0 0,0 0,0 0,0 0,0 0,0 0,0 0,0 0,0 0,0l0 4c0,2 -2,4 -4,4z"/>
     <path class="fil9" d="M80 65l0 0c0,1 -1,3 -3,3l-7 0c-1,0 -3,-1 -3,-3l-1 -5c0,-1 1,-2 3,-2l8 0c1,0 3,1 3,2l0 0c0,0 0,0 0,0l-1 4zm-20 0l0 0c0,1 -1,3 -3,3l-7 0c-1,0 -3,-1 -3,-3l-1 -4c0,0 0,0 0,0l0 0c0,-1 1,-2 3,-2l8 0c1,0 3,1 3,2l-1 5zm25 -6l-3 1c0,-2 -2,-4 -4,-4l-8 0c-2,0 -4,2 -4,4l-3 0c0,-2 -2,-4 -4,-4l-8 0c-2,0 -4,2 -4,4l-3 -1c0,0 -1,0 -1,1 0,0 0,1 1,1l3 1 1 4c0,2 2,4 4,4l7 0c2,0 4,-2 4,-4l1 -4 3 0 1 4c0,2 2,4 4,4l7 0c2,0 4,-2 4,-4l1 -4 3 -1c0,0 1,-1 1,-1 0,0 -1,-1 -1,-1z"/>
    </g>
    <path class="fil1" d="M151 332c-27,0 -49,-3 -49,-7 0,-4 22,-7 49,-7 27,0 49,3 49,7 0,4 -22,7 -49,7z"/>
    <polygon class="fil9" points="129,317 150,317 150,213 129,213 "/>
    <polygon class="fil10" points="150,224 129,215 150,215 "/>
    <path class="fil10" d="M150 322c0,5 -22,5 -22,0 0,-5 5,-7 11,-7 6,0 11,2 11,7z"/>
    <polygon class="fil9" points="153,317 174,317 174,213 153,213 "/>
    <polygon class="fil20" points="174,224 174,224 174,215 174,215 "/>
    <polygon class="fil10" points="174,224 153,215 174,215 "/>
    <path class="fil10" d="M175 322c0,5 -22,5 -22,0 0,-5 5,-7 11,-7 6,0 11,2 11,7z"/>
    <polygon class="fil6" points="142,136 161,136 161,96 142,96 "/>
    <path class="fil7" d="M161 106l-20 -7 0 -1 0 0c3,2 7,3 10,3l0 0c3,0 7,-1 10,-3l0 0 0 8z"/>
    <path class="fil21" d="M183 135c5,-15 -5,-30 -21,-30l-11 17 -11 -17c-16,0 -25,15 -21,30l4 3 -3 77 62 0 -3 -77 4 -3z"/>
    <polygon class="fil10" points="123,155 123,146 124,142 132,130 "/>
    <polygon class="fil20" points="180,146 179,142 179,142 "/>
    <polygon class="fil10" points="180,155 171,130 179,142 180,146 "/>
    <path class="fil22" d="M154 132c0,1 -1,2 -2,2 -1,0 -2,-1 -2,-2 0,-1 1,-2 2,-2 1,0 2,1 2,2z"/>
    <path class="fil22" d="M154 126c0,1 -1,2 -2,2 -1,0 -2,-1 -2,-2 0,-1 1,-2 2,-2 1,0 2,1 2,2z"/>
    <path class="fil22" d="M141 105c-1,0 -3,0 -5,0 0,9 2,26 15,16l-10 -17z"/>
    <path class="fil22" d="M162 105c1,0 3,0 5,0 0,9 -2,26 -15,16l10 -17z"/>
    <path class="fil9" d="M167 161l-17 -30 -5 -1 -9 -15c-1,-2 -3,-2 -5,-1 -2,1 -2,3 -1,5l9 15 -1 5 17 30c2,3 6,4 9,2 3,-2 4,-6 2,-9z"/>
    <path class="fil23" d="M139 137l17 30c1,2 3,3 5,3 1,0 2,0 3,-1 3,-2 4,-5 2,-8l-17 -30 -5 -1 -9 -16c0,-1 -1,-1 -2,-1 0,0 -1,0 -1,0 -1,0 -1,1 -1,2 0,1 0,1 0,2l9 16 -1 5zm22 34l0 0c-3,0 -5,-1 -7,-4l-17 -30 1 -5 -9 -15c-1,-1 -1,-2 0,-3 0,-1 1,-2 2,-3 1,0 1,-1 2,-1 2,0 3,1 4,2l9 15 5 1 17 30c2,4 1,8 -3,10 -1,1 -2,1 -4,1z"/>
    <path class="fil24" d="M161 164l0 0 2 -1c0,0 0,-1 0,-1 0,0 -1,0 -1,0l-2 1 -3 -5 2 -1c0,0 0,-1 0,-1 0,0 -1,0 -1,0l-2 1 -3 -5 2 -1c0,0 0,-1 0,-1 0,0 -1,0 -1,0l-2 1 -3 -5 2 -1c0,0 0,-1 0,-1 0,0 -1,0 -1,0l-2 1 -3 -5 2 -1c0,0 0,-1 0,-1 0,0 -1,0 -1,0l-2 1 -3 -5 2 -1c0,0 0,-1 0,-1 0,0 -1,0 -1,0l-2 1 0 -1c0,0 -1,0 -1,0 0,0 0,1 0,1l0 1 -2 1c0,0 0,1 0,1 0,0 1,0 1,0l2 -1 3 5 -2 1c0,0 0,1 0,1 0,0 1,0 1,0l2 -1 3 5 -2 1c0,0 0,1 0,1 0,0 1,0 1,0l2 -1 3 5 -2 1c0,0 0,1 0,1 0,0 1,0 1,0l2 -1 3 5 -2 1c0,0 0,1 0,1 0,0 1,0 1,0l2 -1 3 5 -2 1c0,0 0,1 0,1 0,0 1,0 1,0l2 -1 0 0z"/>
    <path class="fil25" d="M151 144l-14 -24 1 -1 -2 -4c-1,-1 -2,-2 -3,-1 -1,1 -2,2 -1,3l2 4 1 -1 14 24c0,1 1,1 2,0 1,0 1,-1 0,-2z"/>
    <path class="fil21" d="M178 147c-3,-14 -10,-22 -10,-22l11 -13c1,1 10,13 15,31l-16 4z"/>
    <path class="fil6" d="M197 164l-5 -20 -12 3 4 15 -21 6c-3,1 -5,4 -4,7 1,3 3,4 6,4 1,0 1,0 2,0l26 -7c3,-1 5,-4 4,-7z"/>
    <path class="fil6" d="M173 170c-1,0 -1,0 -2,-1 -1,-1 -2,-2 -3,-2l0 0c-1,0 -2,0 -3,-2 0,-1 1,-2 2,-3 3,-1 6,2 7,3 1,1 1,2 0,3 0,0 -1,1 -1,1z"/>
    <polygon class="fil26" points="184,162 184,159 184,159 "/>
    <polygon class="fil7" points="184,162 184,162 184,159 190,160 "/>
    <path class="fil6" d="M154 152c-1,-3 -4,-5 -7,-4l-26 8 2 -10 -12 -3 -4 21c0,2 0,4 2,6 1,1 3,2 4,2 1,0 1,0 2,0l35 -11c3,-1 5,-4 4,-7z"/>
    <path class="fil6" d="M141 155c0,0 0,0 -1,0 -1,0 -2,-1 -2,-3 0,-2 1,-4 3,-5 1,-1 2,-1 3,0 1,1 1,2 0,3 0,0 -1,2 -1,3 0,1 -1,2 -2,2z"/>
    <polygon class="fil26" points="121,156 121,154 121,154 "/>
    <polygon class="fil7" points="114,159 121,154 121,156 "/>
    <path class="fil21" d="M125 147l-16 -4c5,-19 15,-31 16,-32l10 15 0 0c0,0 -1,1 -3,4 -2,4 -5,10 -7,18z"/>
    <path class="fil27" d="M188 112c-3,-1 -7,-4 -10,-5 0,1 1,3 1,4 -3,-1 -6,-4 -8,-7 -5,-8 -7,-17 -6,-26 0,-2 0,-4 1,-6 1,-1 2,-3 3,-4 1,-1 2,-1 3,-1 1,0 3,0 4,1 3,2 4,4 5,7 3,9 3,19 4,28 0,4 1,7 4,10z"/>
    <path class="fil6" d="M152 37c-9,0 -21,12 -21,21l0 22c0,9 12,21 21,21 9,0 21,-12 21,-21l0 -22c0,-9 -12,-21 -21,-21z"/>
    <path class="fil14" d="M152 30c-31,0 -28,40 -20,46 0,0 -7,-31 20,-31 28,0 20,31 20,31 8,-6 11,-46 -20,-46z"/>
    <path class="fil6" d="M130 67c-2,0 -4,2 -4,4l0 4c0,2 2,4 4,4 2,0 4,-2 4,-4l0 -4c0,-2 -2,-4 -4,-4z"/>
    <path class="fil6" d="M173 67c-2,0 -4,2 -4,4l0 4c0,2 2,4 4,4 2,0 4,-2 4,-4l0 -4c0,-2 -2,-4 -4,-4z"/>
    <path class="fil14" d="M167 64c-2,-2 -3,-3 -4,-5 3,3 8,5 12,5 -5,-8 -3,-14 -7,-19 -21,-22 -37,5 -37,5 0,0 -8,18 -1,18 4,0 10,-10 13,-16 3,4 8,9 13,11 -2,-2 -3,-4 -4,-6 4,4 9,7 15,9z"/>
    <path class="fil15" d="M152 101l0 -16 -4 -1c0,0 1,-7 4,-14l0 -13c1,1 3,2 4,2 0,0 0,0 0,0 0,0 0,0 0,0 0,0 0,0 0,0 0,0 0,0 0,0 0,0 0,0 0,0 0,0 0,0 0,0 0,0 0,0 0,0 0,0 0,0 0,0 0,0 0,0 0,0 0,0 0,0 0,0 0,0 0,0 0,0l0 0c-2,-2 -3,-4 -4,-6 4,4 9,7 15,9l0 0c-2,-2 -3,-3 -4,-5 0,0 0,0 1,0 2,2 6,3 9,4 0,1 0,3 0,4 -2,0 -4,2 -4,4l0 4c0,2 2,4 4,4l0 0c0,4 -2,9 -6,13 -4,5 -10,8 -15,8zm11 -32c0,0 0,0 0,0 -2,0 -3,2 -3,3 0,2 2,3 3,3 0,0 0,0 0,0 2,0 3,-2 3,-3 0,-2 -2,-3 -3,-3z"/>
    <path class="fil16" d="M173 67c0,-1 0,-3 0,-4 0,0 0,0 0,0l0 4c0,0 0,0 0,0z"/>
    <path class="fil28" d="M177 71c0,0 0,0 0,0 0,0 0,0 0,0z"/>
    <path class="fil15" d="M173 80l0 0c-2,0 -4,-2 -4,-4l0 -4c0,-2 2,-4 4,-4 0,0 0,0 0,0l0 0c0,0 0,0 1,0 2,0 3,2 4,3 0,0 0,1 0,1 0,0 0,0 0,0l0 4c0,2 -2,4 -4,4z"/>
    <path class="fil16" d="M167 64l0 0c-2,-2 -3,-3 -4,-5l0 0c1,2 2,4 4,5zm5 -1c0,0 0,0 0,0 -3,-1 -6,-2 -9,-4 3,2 6,3 9,4l0 0zm-17 -2l0 0c-2,-2 -3,-4 -4,-6l0 0c0,2 2,4 4,6zm0 0c0,0 0,0 0,0 0,0 0,0 0,0zm0 0c0,0 0,0 0,0 0,0 0,0 0,0zm0 0c0,0 0,0 0,0 0,0 0,0 0,0zm0 0c0,0 0,0 0,0 0,0 0,0 0,0zm0 0c0,0 0,0 0,0 0,0 0,0 0,0zm0 0c-1,-1 -3,-1 -4,-2l0 0c1,1 3,2 4,2z"/>
    <path class="fil7" d="M141 76c-2,0 -3,-1 -3,-3 0,-2 1,-3 3,-3 0,0 0,0 0,0 2,0 3,1 3,3 0,2 -1,3 -3,3 0,0 0,0 0,0z"/>
    <path class="fil14" d="M144 72c0,2 -1,3 -3,3 -2,0 -3,-1 -3,-3 0,-2 1,-3 3,-3 2,0 3,1 3,3z"/>
    <path class="fil9" d="M143 71c0,0 0,1 -1,1 0,0 -1,0 -1,-1 0,0 0,-1 1,-1 0,0 1,0 1,1z"/>
    <path class="fil14" d="M145 69c-1,-1 -2,-3 -4,-3 -1,0 -3,0 -5,2l0 0c0,0 0,0 0,0 0,0 0,0 -1,0 -1,0 -1,-1 -1,-1l0 0 0 0c0,0 0,0 0,0 0,0 0,0 1,1 0,0 1,0 1,1 0,0 0,0 0,0 0,0 0,0 0,0 0,0 0,0 1,0 1,-2 3,-2 4,-2 1,0 3,1 3,2 0,0 0,0 1,0 0,0 0,0 0,-1z"/>
    <path class="fil29" d="M162 76c-2,0 -3,-1 -3,-3 0,-2 1,-3 3,-3 0,0 0,0 0,0 2,0 3,1 3,3 0,2 -1,3 -3,3 0,0 0,0 0,0z"/>
    <path class="fil14" d="M166 72c0,2 -1,3 -3,3 -2,0 -3,-1 -3,-3 0,-2 1,-3 3,-3 2,0 3,1 3,3z"/>
    <path class="fil9" d="M164 71c0,0 0,1 -1,1 0,0 -1,0 -1,-1 0,0 0,-1 1,-1 0,0 1,0 1,1z"/>
    <path class="fil14" d="M158 69c1,-1 2,-3 4,-3 1,0 3,0 5,2l0 0c0,0 0,0 0,0 0,0 0,0 1,0 1,0 1,-1 1,-1l0 0 0 0c0,0 0,0 0,0 0,0 0,0 -1,1 0,0 -1,0 -1,1 0,0 0,0 0,0 0,0 0,0 0,0 0,0 0,0 -1,0 -1,-2 -3,-2 -4,-2 -1,0 -3,1 -3,2 0,0 0,0 -1,0 0,0 0,0 0,-1z"/>
    <path class="fil30" d="M167 49c-10,-3 -20,-3 -30,0 -2,-6 -5,-13 -7,-19 14,-5 30,-5 44,0 -2,6 -5,13 -7,19z"/>
    <polygon class="fil21" points="158,35 154,35 154,31 149,31 149,35 145,35 145,40 149,40 149,43 154,43 154,40 158,40 "/>
   </g>
  </g>
  <path class="fil31" d="M104 0c-57,0 -104,46 -104,104 0,57 46,104 104,104 57,0 104,-46 104,-104 0,-57 -46,-104 -104,-104z"/>
 </g>
</svg>
